<?xml version="1.0" encoding="UTF-8" standalone="no"?>
<!DOCTYPE svg PUBLIC "-//W3C//DTD SVG 1.1//EN"
 "http://www.w3.org/Graphics/SVG/1.1/DTD/svg11.dtd">
<!-- Generated by graphviz version 2.43.0 (0)
 -->
<!-- Title: G Pages: 1 -->
<svg width="1187pt" height="128pt"
 viewBox="0.00 0.00 1187.00 128.00" xmlns="http://www.w3.org/2000/svg" xmlns:xlink="http://www.w3.org/1999/xlink">
<g id="graph0" class="graph" transform="scale(1 1) rotate(0) translate(4 124)">
<title>G</title>
<polygon fill="white" stroke="transparent" points="-4,4 -4,-124 1183,-124 1183,4 -4,4"/>
<!-- v_8440 -->
<g id="node1" class="node">
<title>v_8440</title>
<polygon fill="none" stroke="black" points="980,-54.5 980,-90.5 1179,-90.5 1179,-54.5 980,-54.5"/>
<text text-anchor="middle" x="992.5" y="-68.8" font-family="Times,serif" font-size="14.00">L</text>
<polyline fill="none" stroke="black" points="1005,-54.5 1005,-90.5 "/>
<text text-anchor="middle" x="1051" y="-68.8" font-family="Times,serif" font-size="14.00">result &#45;8.0000</text>
<polyline fill="none" stroke="black" points="1097,-54.5 1097,-90.5 "/>
<text text-anchor="middle" x="1138" y="-68.8" font-family="Times,serif" font-size="14.00">grad 1.0000</text>
</g>
<!-- op_8440_* -->
<g id="node2" class="node">
<title>op_8440_*</title>
<ellipse fill="none" stroke="black" cx="917" cy="-72.5" rx="27" ry="18"/>
<text text-anchor="middle" x="917" y="-68.8" font-family="Times,serif" font-size="14.00">*</text>
</g>
<!-- op_8440_*&#45;&gt;v_8440 -->
<g id="edge1" class="edge">
<title>op_8440_*&#45;&gt;v_8440</title>
<path fill="none" stroke="black" d="M944.14,-72.5C951.65,-72.5 960.33,-72.5 969.6,-72.5"/>
<polygon fill="black" stroke="black" points="969.86,-76 979.86,-72.5 969.86,-69 969.86,-76"/>
</g>
<!-- v_8340 -->
<g id="node3" class="node">
<title>v_8340</title>
<polygon fill="none" stroke="black" points="658,-82.5 658,-118.5 853,-118.5 853,-82.5 658,-82.5"/>
<text text-anchor="middle" x="668.5" y="-96.8" font-family="Times,serif" font-size="14.00">f</text>
<polyline fill="none" stroke="black" points="679,-82.5 679,-118.5 "/>
<text text-anchor="middle" x="725" y="-96.8" font-family="Times,serif" font-size="14.00">result &#45;2.0000</text>
<polyline fill="none" stroke="black" points="771,-82.5 771,-118.5 "/>
<text text-anchor="middle" x="812" y="-96.8" font-family="Times,serif" font-size="14.00">grad 4.0000</text>
</g>
<!-- v_8340&#45;&gt;op_8440_* -->
<g id="edge4" class="edge">
<title>v_8340&#45;&gt;op_8440_*</title>
<path fill="none" stroke="black" d="M853.42,-83.49C863.05,-81.8 872.33,-80.17 880.66,-78.7"/>
<polygon fill="black" stroke="black" points="881.42,-82.12 890.66,-76.95 880.21,-75.23 881.42,-82.12"/>
</g>
<!-- v_8360 -->
<g id="node4" class="node">
<title>v_8360</title>
<polygon fill="none" stroke="black" points="657,-27.5 657,-63.5 854,-63.5 854,-27.5 657,-27.5"/>
<text text-anchor="middle" x="668.5" y="-41.8" font-family="Times,serif" font-size="14.00">d</text>
<polyline fill="none" stroke="black" points="680,-27.5 680,-63.5 "/>
<text text-anchor="middle" x="724" y="-41.8" font-family="Times,serif" font-size="14.00">result 4.0000</text>
<polyline fill="none" stroke="black" points="768,-27.5 768,-63.5 "/>
<text text-anchor="middle" x="811" y="-41.8" font-family="Times,serif" font-size="14.00">grad &#45;2.0000</text>
</g>
<!-- v_8360&#45;&gt;op_8440_* -->
<g id="edge5" class="edge">
<title>v_8360&#45;&gt;op_8440_*</title>
<path fill="none" stroke="black" d="M854.33,-62.06C863.57,-63.62 872.46,-65.13 880.49,-66.49"/>
<polygon fill="black" stroke="black" points="880.04,-69.96 890.48,-68.18 881.21,-63.06 880.04,-69.96"/>
</g>
<!-- op_8360_+ -->
<g id="node5" class="node">
<title>op_8360_+</title>
<ellipse fill="none" stroke="black" cx="594" cy="-45.5" rx="27" ry="18"/>
<text text-anchor="middle" x="594" y="-41.8" font-family="Times,serif" font-size="14.00">+</text>
</g>
<!-- op_8360_+&#45;&gt;v_8360 -->
<g id="edge2" class="edge">
<title>op_8360_+&#45;&gt;v_8360</title>
<path fill="none" stroke="black" d="M621.34,-45.5C628.81,-45.5 637.44,-45.5 646.64,-45.5"/>
<polygon fill="black" stroke="black" points="646.83,-49 656.83,-45.5 646.83,-42 646.83,-49"/>
</g>
<!-- v_8300 -->
<g id="node6" class="node">
<title>v_8300</title>
<polygon fill="none" stroke="black" points="328.5,-55.5 328.5,-91.5 529.5,-91.5 529.5,-55.5 328.5,-55.5"/>
<text text-anchor="middle" x="340" y="-69.8" font-family="Times,serif" font-size="14.00">e</text>
<polyline fill="none" stroke="black" points="351.5,-55.5 351.5,-91.5 "/>
<text text-anchor="middle" x="397.5" y="-69.8" font-family="Times,serif" font-size="14.00">result &#45;6.0000</text>
<polyline fill="none" stroke="black" points="443.5,-55.5 443.5,-91.5 "/>
<text text-anchor="middle" x="486.5" y="-69.8" font-family="Times,serif" font-size="14.00">grad &#45;2.0000</text>
</g>
<!-- v_8300&#45;&gt;op_8360_+ -->
<g id="edge6" class="edge">
<title>v_8300&#45;&gt;op_8360_+</title>
<path fill="none" stroke="black" d="M529.51,-56.41C539.5,-54.69 549.11,-53.04 557.7,-51.56"/>
<polygon fill="black" stroke="black" points="558.36,-55 567.63,-49.86 557.18,-48.1 558.36,-55"/>
</g>
<!-- op_8300_* -->
<g id="node7" class="node">
<title>op_8300_*</title>
<ellipse fill="none" stroke="black" cx="264" cy="-73.5" rx="27" ry="18"/>
<text text-anchor="middle" x="264" y="-69.8" font-family="Times,serif" font-size="14.00">*</text>
</g>
<!-- op_8300_*&#45;&gt;v_8300 -->
<g id="edge3" class="edge">
<title>op_8300_*&#45;&gt;v_8300</title>
<path fill="none" stroke="black" d="M291.19,-73.5C299.09,-73.5 308.29,-73.5 318.13,-73.5"/>
<polygon fill="black" stroke="black" points="318.16,-77 328.16,-73.5 318.16,-70 318.16,-77"/>
</g>
<!-- v_8260 -->
<g id="node8" class="node">
<title>v_8260</title>
<polygon fill="none" stroke="black" points="4,-83.5 4,-119.5 197,-119.5 197,-83.5 4,-83.5"/>
<text text-anchor="middle" x="15.5" y="-97.8" font-family="Times,serif" font-size="14.00">a</text>
<polyline fill="none" stroke="black" points="27,-83.5 27,-119.5 "/>
<text text-anchor="middle" x="71" y="-97.8" font-family="Times,serif" font-size="14.00">result 2.0000</text>
<polyline fill="none" stroke="black" points="115,-83.5 115,-119.5 "/>
<text text-anchor="middle" x="156" y="-97.8" font-family="Times,serif" font-size="14.00">grad 6.0000</text>
</g>
<!-- v_8260&#45;&gt;op_8300_* -->
<g id="edge7" class="edge">
<title>v_8260&#45;&gt;op_8300_*</title>
<path fill="none" stroke="black" d="M197.31,-84.89C208.07,-83.02 218.46,-81.22 227.68,-79.62"/>
<polygon fill="black" stroke="black" points="228.29,-83.07 237.54,-77.91 227.09,-76.17 228.29,-83.07"/>
</g>
<!-- v_8280 -->
<g id="node9" class="node">
<title>v_8280</title>
<polygon fill="none" stroke="black" points="0,-28.5 0,-64.5 201,-64.5 201,-28.5 0,-28.5"/>
<text text-anchor="middle" x="11.5" y="-42.8" font-family="Times,serif" font-size="14.00">b</text>
<polyline fill="none" stroke="black" points="23,-28.5 23,-64.5 "/>
<text text-anchor="middle" x="69" y="-42.8" font-family="Times,serif" font-size="14.00">result &#45;3.0000</text>
<polyline fill="none" stroke="black" points="115,-28.5 115,-64.5 "/>
<text text-anchor="middle" x="158" y="-42.8" font-family="Times,serif" font-size="14.00">grad &#45;4.0000</text>
</g>
<!-- v_8280&#45;&gt;op_8300_* -->
<g id="edge8" class="edge">
<title>v_8280&#45;&gt;op_8300_*</title>
<path fill="none" stroke="black" d="M201.02,-63.14C210.41,-64.71 219.44,-66.22 227.56,-67.58"/>
<polygon fill="black" stroke="black" points="227.24,-71.07 237.68,-69.27 228.39,-64.17 227.24,-71.07"/>
</g>
<!-- v_8320 -->
<g id="node10" class="node">
<title>v_8320</title>
<polygon fill="none" stroke="black" points="327,-0.5 327,-36.5 531,-36.5 531,-0.5 327,-0.5"/>
<text text-anchor="middle" x="338.5" y="-14.8" font-family="Times,serif" font-size="14.00">c</text>
<polyline fill="none" stroke="black" points="350,-0.5 350,-36.5 "/>
<text text-anchor="middle" x="397.5" y="-14.8" font-family="Times,serif" font-size="14.00">result 10.0000</text>
<polyline fill="none" stroke="black" points="445,-0.5 445,-36.5 "/>
<text text-anchor="middle" x="488" y="-14.8" font-family="Times,serif" font-size="14.00">grad &#45;2.0000</text>
</g>
<!-- v_8320&#45;&gt;op_8360_+ -->
<g id="edge9" class="edge">
<title>v_8320&#45;&gt;op_8360_+</title>
<path fill="none" stroke="black" d="M531.38,-35.29C540.65,-36.83 549.56,-38.3 557.58,-39.63"/>
<polygon fill="black" stroke="black" points="557.13,-43.11 567.57,-41.29 558.27,-36.2 557.13,-43.11"/>
</g>
</g>
</svg>
