<?xml version="1.0" encoding="UTF-8" standalone="no"?>
<!DOCTYPE svg PUBLIC "-//W3C//DTD SVG 1.1//EN"
 "http://www.w3.org/Graphics/SVG/1.1/DTD/svg11.dtd">
<!-- Generated by graphviz version 2.43.0 (0)
 -->
<!-- Title: G Pages: 1 -->
<svg width="581pt" height="128pt"
 viewBox="0.00 0.00 581.00 128.00" xmlns="http://www.w3.org/2000/svg" xmlns:xlink="http://www.w3.org/1999/xlink">
<g id="graph0" class="graph" transform="scale(1 1) rotate(0) translate(4 124)">
<title>G</title>
<polygon fill="white" stroke="transparent" points="-4,4 -4,-124 577,-124 577,4 -4,4"/>
<!-- v_3000 -->
<g id="node1" class="node">
<title>v_3000</title>
<polygon fill="none" stroke="black" points="470,-27.5 470,-63.5 573,-63.5 573,-27.5 470,-27.5"/>
<text text-anchor="middle" x="481.5" y="-41.8" font-family="Times,serif" font-size="14.00">d</text>
<polyline fill="none" stroke="black" points="493,-27.5 493,-63.5 "/>
<text text-anchor="middle" x="533" y="-41.8" font-family="Times,serif" font-size="14.00">data 4.0000</text>
</g>
<!-- op_3000_+ -->
<g id="node2" class="node">
<title>op_3000_+</title>
<ellipse fill="none" stroke="black" cx="407" cy="-45.5" rx="27" ry="18"/>
<text text-anchor="middle" x="407" y="-41.8" font-family="Times,serif" font-size="14.00">+</text>
</g>
<!-- op_3000_+&#45;&gt;v_3000 -->
<g id="edge1" class="edge">
<title>op_3000_+&#45;&gt;v_3000</title>
<path fill="none" stroke="black" d="M434.09,-45.5C441.83,-45.5 450.64,-45.5 459.61,-45.5"/>
<polygon fill="black" stroke="black" points="459.76,-49 469.76,-45.5 459.76,-42 459.76,-49"/>
</g>
<!-- v_2920 -->
<g id="node3" class="node">
<title>v_2920</title>
<polygon fill="none" stroke="black" points="235,-55.5 235,-91.5 343,-91.5 343,-55.5 235,-55.5"/>
<text text-anchor="middle" x="246.5" y="-69.8" font-family="Times,serif" font-size="14.00">e</text>
<polyline fill="none" stroke="black" points="258,-55.5 258,-91.5 "/>
<text text-anchor="middle" x="300.5" y="-69.8" font-family="Times,serif" font-size="14.00">data &#45;6.0000</text>
</g>
<!-- v_2920&#45;&gt;op_3000_+ -->
<g id="edge3" class="edge">
<title>v_2920&#45;&gt;op_3000_+</title>
<path fill="none" stroke="black" d="M343.25,-60.65C352.84,-58.33 362.6,-55.98 371.48,-53.83"/>
<polygon fill="black" stroke="black" points="372.54,-57.18 381.43,-51.43 370.89,-50.37 372.54,-57.18"/>
</g>
<!-- op_2920_* -->
<g id="node4" class="node">
<title>op_2920_*</title>
<ellipse fill="none" stroke="black" cx="171" cy="-73.5" rx="27" ry="18"/>
<text text-anchor="middle" x="171" y="-69.8" font-family="Times,serif" font-size="14.00">*</text>
</g>
<!-- op_2920_*&#45;&gt;v_2920 -->
<g id="edge2" class="edge">
<title>op_2920_*&#45;&gt;v_2920</title>
<path fill="none" stroke="black" d="M198.03,-73.5C206.08,-73.5 215.32,-73.5 224.74,-73.5"/>
<polygon fill="black" stroke="black" points="224.99,-77 234.99,-73.5 224.99,-70 224.99,-77"/>
</g>
<!-- v_2880 -->
<g id="node5" class="node">
<title>v_2880</title>
<polygon fill="none" stroke="black" points="2.5,-83.5 2.5,-119.5 105.5,-119.5 105.5,-83.5 2.5,-83.5"/>
<text text-anchor="middle" x="14" y="-97.8" font-family="Times,serif" font-size="14.00">a</text>
<polyline fill="none" stroke="black" points="25.5,-83.5 25.5,-119.5 "/>
<text text-anchor="middle" x="65.5" y="-97.8" font-family="Times,serif" font-size="14.00">data 2.0000</text>
</g>
<!-- v_2880&#45;&gt;op_2920_* -->
<g id="edge4" class="edge">
<title>v_2880&#45;&gt;op_2920_*</title>
<path fill="none" stroke="black" d="M105.78,-89.14C115.85,-86.68 126.2,-84.16 135.58,-81.88"/>
<polygon fill="black" stroke="black" points="136.41,-85.28 145.3,-79.51 134.76,-78.48 136.41,-85.28"/>
</g>
<!-- v_2900 -->
<g id="node6" class="node">
<title>v_2900</title>
<polygon fill="none" stroke="black" points="0,-28.5 0,-64.5 108,-64.5 108,-28.5 0,-28.5"/>
<text text-anchor="middle" x="11.5" y="-42.8" font-family="Times,serif" font-size="14.00">b</text>
<polyline fill="none" stroke="black" points="23,-28.5 23,-64.5 "/>
<text text-anchor="middle" x="65.5" y="-42.8" font-family="Times,serif" font-size="14.00">data &#45;3.0000</text>
</g>
<!-- v_2900&#45;&gt;op_2920_* -->
<g id="edge5" class="edge">
<title>v_2900&#45;&gt;op_2920_*</title>
<path fill="none" stroke="black" d="M108.12,-58.97C117.33,-61.13 126.68,-63.33 135.24,-65.34"/>
<polygon fill="black" stroke="black" points="134.68,-68.8 145.21,-67.68 136.28,-61.99 134.68,-68.8"/>
</g>
<!-- v_2940 -->
<g id="node7" class="node">
<title>v_2940</title>
<polygon fill="none" stroke="black" points="234,-0.5 234,-36.5 344,-36.5 344,-0.5 234,-0.5"/>
<text text-anchor="middle" x="245.5" y="-14.8" font-family="Times,serif" font-size="14.00">c</text>
<polyline fill="none" stroke="black" points="257,-0.5 257,-36.5 "/>
<text text-anchor="middle" x="300.5" y="-14.8" font-family="Times,serif" font-size="14.00">data 10.0000</text>
</g>
<!-- v_2940&#45;&gt;op_3000_+ -->
<g id="edge6" class="edge">
<title>v_2940&#45;&gt;op_3000_+</title>
<path fill="none" stroke="black" d="M344.26,-31.13C353.49,-33.28 362.84,-35.45 371.37,-37.44"/>
<polygon fill="black" stroke="black" points="370.79,-40.9 381.32,-39.76 372.38,-34.08 370.79,-40.9"/>
</g>
</g>
</svg>
